<svg xmlns="http://www.w3.org/2000/svg" version="1.1" xmlns:xlink="http://www.w3.org/1999/xlink" xmlns:svgjs="http://svgjs.dev/svgjs" width="1000" height="237" viewBox="0 0 1000 237"><g transform="matrix(1,0,0,1,-0.6060512415253925,0.24288220445750142)"><svg viewBox="0 0 396 94" data-background-color="#ffffff" preserveAspectRatio="xMidYMid meet" height="237" width="1000" xmlns="http://www.w3.org/2000/svg" xmlns:xlink="http://www.w3.org/1999/xlink"><g id="tight-bounds" transform="matrix(1,0,0,1,0.23999629164404723,-0.09633302624052931)"><svg viewBox="0 0 395.52 94.19266605248104" height="94.19266605248104" width="395.52"><g><svg viewBox="0 0 548.4421221651735 130.61090630617466" height="94.19266605248104" width="395.52"><g transform="matrix(1,0,0,1,152.92212216517356,18.051145516989415)"><svg viewBox="0 0 395.52 94.50861527219583" height="94.50861527219583" width="395.52"><g id="textblocktransform"><svg viewBox="0 0 395.52 94.50861527219583" height="94.50861527219583" width="395.52" id="textblock"><g><svg viewBox="0 0 395.52 94.50861527219583" height="94.50861527219583" width="395.52"><g transform="matrix(1,0,0,1,0,0)"><svg width="395.52" viewBox="-0.5 -32.099998474121094 140.83999633789062 32.69999694824219" height="94.50861527219583" data-palette-color="#dedede"><g class="wordmark-text-0" data-fill-palette-color="primary" id="text-0"><path d="M28.8-0.9L28.8 0 18.55 0 18.55-0.9 21.8-0.9 18.3-10.55 7.3-10.55 3.8-0.9 7.05-0.9 7.05 0-0.5 0-0.5-0.9 1.35-0.9Q2.05-0.9 2.3-1.6L2.3-1.6 13.3-31.5 15-31.5 26-1.6Q26.25-0.9 26.95-0.9L26.95-0.9 28.8-0.9ZM17.8-11.95L12.85-25.6 7.85-11.95 17.8-11.95ZM47.6-30.6L47.6-31.5 54.4-31.5 54.4-30.6 52.55-30.6Q51.85-30.6 51.6-29.9L51.6-29.9 43.95-11.45 43.95-1.6Q43.95-0.9 44.65-0.9L44.65-0.9 48.25-0.9 48.25 0 35.55 0 35.55-0.9 39.15-0.9Q39.85-0.9 39.85-1.6L39.85-1.6 39.85-11.5 31.35-29.9Q31-30.6 30.4-30.6L30.4-30.6 28.55-30.6 28.55-31.5 38.1-31.5 38.1-30.6 35.6-30.6 43.25-14 50.1-30.6 47.6-30.6ZM76.3-31.5L84.09-31.5 84.09-30.6 81.75-30.6Q81.05-30.6 81.05-30L81.05-30 81.05-9.75Q81.05-4.55 78.05-1.98 75.05 0.6 70 0.6 64.95 0.6 61.95-1.98 58.95-4.55 58.95-9.75L58.95-9.75 58.95-30Q58.95-30.6 58.25-30.6L58.25-30.6 55.9-30.6 55.9-31.5 66.09-31.5 66.09-30.6 63.75-30.6Q63.05-30.6 63.05-30L63.05-30 63.05-9.4Q63.05-5.2 65.12-3.18 67.2-1.15 70.77-1.15 74.34-1.15 76.84-3.18 79.34-5.2 79.34-9.75L79.34-9.75 79.34-30Q79.34-30.6 78.65-30.6L78.65-30.6 76.3-30.6 76.3-31.5ZM97.24 0.6L97.24 0.6Q93.94 0.6 90.64-1.2L90.64-1.2Q89.54-1.75 89.14-1.75L89.14-1.75Q88.39-1.75 88.34-0.7L88.34-0.7 88.29 0 87.34 0 87.34-8.35 88.24-8.35Q88.69-4.5 91.12-2.68 93.54-0.85 96.87-0.85 100.19-0.85 101.92-2.65 103.64-4.45 103.64-6.9L103.64-6.9Q103.64-10.8 99.14-12.8L99.14-12.8 93.19-15.45Q90.49-16.65 89.14-18.73 87.79-20.8 87.79-23.2L87.79-23.2Q87.79-26.85 90.24-29.48 92.69-32.1 97.29-32.1L97.29-32.1Q99.99-32.1 102.84-30.3L102.84-30.3Q103.79-29.75 104.14-29.75L104.14-29.75Q104.79-29.75 104.84-30.8L104.84-30.8 104.89-31.8 105.84-31.8 105.84-23.15 104.94-23.15Q104.54-27 102.47-28.83 100.39-30.65 97.42-30.65 94.44-30.65 92.82-29.03 91.19-27.4 91.19-25.33 91.19-23.25 92.32-21.6 93.44-19.95 95.64-19L95.64-19 101.64-16.35Q104.64-15 106.17-12.83 107.69-10.65 107.69-8.15L107.69-8.15Q107.69-4.6 104.84-2 101.99 0.6 97.24 0.6ZM133.19-1.6L133.19-1.6 133.19-15.05 118.59-15.05 118.59-1.6Q118.59-0.9 119.29-0.9L119.29-0.9 121.64-0.9 121.64 0 111.44 0 111.44-0.9 113.79-0.9Q114.49-0.9 114.49-1.6L114.49-1.6 114.49-30Q114.49-30.6 113.79-30.6L113.79-30.6 111.44-30.6 111.44-31.5 121.64-31.5 121.64-30.6 119.29-30.6Q118.59-30.6 118.59-29.9L118.59-29.9 118.59-16.45 133.19-16.45 133.19-29.9Q133.19-30.6 132.49-30.6L132.49-30.6 130.14-30.6 130.14-31.5 140.34-31.5 140.34-30.6 137.99-30.6Q137.29-30.6 137.29-30L137.29-30 137.29-1.6Q137.29-0.9 137.99-0.9L137.99-0.9 140.34-0.9 140.34 0 130.14 0 130.14-0.9 132.49-0.9Q133.19-0.9 133.19-1.6Z" fill="#dedede" data-fill-palette-color="primary"></path></g></svg></g></svg></g></svg></g></svg></g><g><svg viewBox="0 0 130.61090630617466 130.61090630617466" height="130.61090630617466" width="130.61090630617466"><g><svg xmlns="http://www.w3.org/2000/svg" xmlns:xlink="http://www.w3.org/1999/xlink" version="1.0" x="0" y="0" viewBox="1 1 48 48" enable-background="new 0 0 50 50" xml:space="preserve" height="130.61090630617466" width="130.61090630617466" class="icon-icon-0" data-fill-palette-color="accent" id="icon-0"><g fill="#dedede" data-fill-palette-color="accent"><g fill="#dedede" data-fill-palette-color="accent"><rect x="1" y="1" fill="#dedede" width="23" height="5" data-fill-palette-color="accent"></rect><rect x="1" y="10" fill="#dedede" width="23" height="5" data-fill-palette-color="accent"></rect><rect x="1" y="19" fill="#dedede" width="23" height="5" data-fill-palette-color="accent"></rect></g><g fill="#dedede" data-fill-palette-color="accent"><rect x="26" y="26" fill="#dedede" width="23" height="5" data-fill-palette-color="accent"></rect><rect x="26" y="35" fill="#dedede" width="23" height="5" data-fill-palette-color="accent"></rect><rect x="26" y="44" fill="#dedede" width="23" height="5" data-fill-palette-color="accent"></rect></g><g fill="#dedede" data-fill-palette-color="accent"><rect x="19" y="26" fill="#dedede" width="5" height="23" data-fill-palette-color="accent"></rect><rect x="10" y="26" fill="#dedede" width="5" height="23" data-fill-palette-color="accent"></rect><rect x="1" y="26" fill="#dedede" width="5" height="23" data-fill-palette-color="accent"></rect></g><g fill="#dedede" data-fill-palette-color="accent"><rect x="44" y="1" fill="#dedede" width="5" height="23" data-fill-palette-color="accent"></rect><rect x="35" y="1" fill="#dedede" width="5" height="23" data-fill-palette-color="accent"></rect><rect x="26" y="1" fill="#dedede" width="5" height="23" data-fill-palette-color="accent"></rect></g></g></svg></g></svg></g></svg></g><defs></defs></svg><rect width="395.52" height="94.19266605248104" fill="none" stroke="none" visibility="hidden"></rect></g></svg></g></svg>